<svg xmlns="http://www.w3.org/2000/svg" xmlns:xlink="http://www.w3.org/1999/xlink" width="200" zoomAndPan="magnify" viewBox="0 0 150 182.249993" height="243" preserveAspectRatio="xMidYMid meet" version="1.0"><path fill="#292722" d="M 11.625 67.667969 L 109.457031 67.667969 L 112.691406 69.6875 L 114.308594 71.710938 L 115.117188 74.136719 L 115.117188 78.179688 L 121.585938 78.582031 L 127.246094 80.199219 L 132.09375 83.03125 L 136.136719 86.265625 L 139.371094 90.710938 L 142.605469 97.179688 L 143.820312 102.433594 L 144.222656 106.074219 L 144.222656 111.328125 L 143.414062 117.390625 L 140.988281 123.859375 L 138.5625 127.902344 L 135.734375 131.539062 L 132.902344 134.371094 L 127.648438 137.605469 L 121.585938 140.03125 L 117.136719 140.839844 L 114.710938 140.839844 L 114.308594 145.691406 L 112.691406 152.15625 L 109.457031 159.03125 L 106.628906 163.074219 L 106.222656 163.882812 L 105.414062 163.882812 L 104.605469 165.5 L 100.5625 169.539062 L 94.902344 173.582031 L 88.03125 176.816406 L 82.777344 178.433594 L 77.519531 179.242188 L 43.96875 179.242188 L 36.691406 178.03125 L 30.222656 175.605469 L 24.160156 172.371094 L 18.902344 167.925781 L 15.265625 164.285156 L 12.433594 160.242188 L 9.199219 154.582031 L 7.179688 148.113281 L 5.96875 141.242188 L 5.96875 74.136719 L 7.179688 70.902344 L 10.007812 68.476562 Z M 13.648438 72.113281 L 11.625 72.921875 L 10.816406 74.136719 L 10.816406 143.265625 L 12.433594 149.730469 L 15.265625 156.199219 L 19.308594 161.457031 L 20.925781 163.476562 L 24.160156 166.308594 L 28.199219 169.136719 L 34.667969 172.371094 L 41.136719 173.988281 L 44.371094 174.390625 L 77.117188 174.390625 L 84.394531 173.179688 L 89.242188 171.15625 L 94.902344 167.925781 L 98.945312 164.285156 L 102.179688 161.050781 L 105.820312 155.796875 L 108.648438 149.328125 L 110.265625 142.050781 L 110.667969 92.328125 L 111.476562 90.304688 L 113.5 89.09375 L 115.117188 88.6875 L 115.117188 135.988281 L 119.5625 135.582031 L 124.414062 133.964844 L 130.074219 130.328125 L 134.519531 125.476562 L 136.945312 121.433594 L 138.96875 115.371094 L 139.371094 112.945312 L 139.371094 104.859375 L 137.753906 98.390625 L 134.925781 92.730469 L 131.285156 88.6875 L 128.457031 86.265625 L 122.796875 83.839844 L 119.160156 83.03125 L 111.476562 83.03125 L 108.648438 83.839844 L 105.820312 86.667969 L 104.605469 89.09375 L 104.203125 91.113281 L 103.796875 142.457031 L 102.179688 148.113281 L 100.5625 151.753906 L 97.734375 156.605469 L 93.285156 161.050781 L 89.242188 163.882812 L 82.777344 166.710938 L 77.519531 167.925781 L 43.5625 167.925781 L 37.902344 166.710938 L 31.433594 163.882812 L 25.777344 159.433594 L 22.945312 156.199219 L 20.519531 152.15625 L 18.5 148.113281 L 17.285156 143.265625 L 16.882812 140.03125 L 16.882812 82.222656 L 18.09375 79.796875 L 19.710938 78.582031 L 109.859375 78.582031 L 110.265625 78.179688 L 110.265625 74.136719 L 107.839844 72.113281 Z M 13.648438 72.113281 " fill-opacity="1" fill-rule="nonzero"/><path fill="#292722" d="M 11.625 67.667969 L 109.457031 67.667969 L 112.691406 69.6875 L 114.308594 71.710938 L 115.117188 74.136719 L 115.117188 78.179688 L 121.585938 78.582031 L 127.246094 80.199219 L 132.09375 83.03125 L 136.136719 86.265625 L 139.371094 90.710938 L 142.605469 97.179688 L 143.820312 102.433594 L 144.222656 106.074219 L 144.222656 111.328125 L 143.414062 117.390625 L 140.988281 123.859375 L 138.5625 127.902344 L 135.734375 131.539062 L 132.902344 134.371094 L 127.648438 137.605469 L 121.585938 140.03125 L 117.136719 140.839844 L 114.710938 140.839844 L 114.308594 145.691406 L 112.691406 152.15625 L 109.457031 159.03125 L 106.628906 163.074219 L 106.222656 163.882812 L 105.414062 163.882812 L 104.605469 165.5 L 100.5625 169.539062 L 94.902344 173.582031 L 88.03125 176.816406 L 82.777344 178.433594 L 77.519531 179.242188 L 43.96875 179.242188 L 36.691406 178.03125 L 30.222656 175.605469 L 24.160156 172.371094 L 18.902344 167.925781 L 15.265625 164.285156 L 12.433594 160.242188 L 9.199219 154.582031 L 7.179688 148.113281 L 5.96875 141.242188 L 5.96875 74.136719 L 7.179688 70.902344 L 10.007812 68.476562 Z M 13.648438 72.113281 L 11.625 72.921875 L 10.816406 74.136719 L 10.816406 143.265625 L 12.433594 149.730469 L 15.265625 156.199219 L 19.308594 161.457031 L 20.925781 163.476562 L 24.160156 166.308594 L 28.199219 169.136719 L 34.667969 172.371094 L 41.136719 173.988281 L 44.371094 174.390625 L 77.117188 174.390625 L 84.394531 173.179688 L 89.242188 171.15625 L 94.902344 167.925781 L 98.945312 164.285156 L 102.179688 161.050781 L 105.820312 155.796875 L 108.648438 149.328125 L 110.265625 142.050781 L 110.667969 92.328125 L 111.476562 90.304688 L 113.5 89.09375 L 115.117188 88.6875 L 115.117188 135.988281 L 119.5625 135.582031 L 124.414062 133.964844 L 130.074219 130.328125 L 134.519531 125.476562 L 136.945312 121.433594 L 138.96875 115.371094 L 139.371094 112.945312 L 139.371094 104.859375 L 137.753906 98.390625 L 134.925781 92.730469 L 131.285156 88.6875 L 128.457031 86.265625 L 122.796875 83.839844 L 119.160156 83.03125 L 111.476562 83.03125 L 109.859375 83.433594 L 110.265625 78.179688 L 110.265625 74.136719 L 107.839844 72.113281 Z M 13.648438 72.113281 " fill-opacity="1" fill-rule="nonzero"/><path fill="#292722" d="M 60.945312 7.03125 L 63.371094 7.839844 L 66.203125 10.261719 L 68.222656 13.902344 L 69.433594 17.945312 L 69.433594 21.179688 L 68.222656 26.03125 L 65.796875 30.476562 L 60.945312 36.136719 L 58.519531 39.773438 L 57.308594 43.007812 L 57.308594 49.476562 L 59.328125 54.730469 L 60.945312 57.964844 L 59.734375 58.371094 L 56.5 55.945312 L 54.074219 52.710938 L 52.457031 49.070312 L 52.050781 47.050781 L 52.050781 43.414062 L 53.265625 38.964844 L 55.691406 34.519531 L 59.328125 30.476562 L 63.371094 24.816406 L 64.179688 21.988281 L 64.179688 15.519531 L 62.5625 11.070312 L 60.945312 8.242188 Z M 60.945312 7.03125 " fill-opacity="1" fill-rule="nonzero"/><path fill="#292722" d="M 11.625 67.667969 L 109.457031 67.667969 L 112.691406 69.6875 L 114.308594 71.710938 L 115.117188 74.136719 L 115.117188 78.179688 L 121.585938 78.582031 L 127.246094 80.199219 L 132.09375 83.03125 L 136.136719 86.265625 L 139.371094 90.710938 L 142.605469 97.179688 L 143.820312 102.433594 L 144.222656 106.074219 L 144.222656 111.328125 L 143.414062 117.390625 L 140.988281 123.859375 L 138.5625 127.902344 L 135.734375 131.539062 L 132.902344 134.371094 L 127.648438 137.605469 L 121.585938 140.03125 L 117.136719 140.839844 L 114.710938 140.839844 L 114.308594 145.691406 L 112.691406 152.15625 L 109.457031 159.03125 L 106.628906 163.074219 L 106.222656 163.882812 L 105.414062 163.882812 L 104.605469 165.5 L 100.5625 169.539062 L 94.902344 173.582031 L 88.03125 176.816406 L 82.777344 178.433594 L 77.519531 179.242188 L 43.96875 179.242188 L 36.691406 178.03125 L 30.222656 175.605469 L 24.160156 172.371094 L 18.902344 167.925781 L 15.265625 164.285156 L 12.433594 160.242188 L 9.199219 154.582031 L 7.179688 148.113281 L 5.96875 141.242188 L 5.96875 74.136719 L 7.179688 70.902344 L 10.007812 68.476562 Z M 13.648438 72.113281 L 11.625 72.921875 L 10.816406 74.136719 L 10.816406 143.265625 L 12.433594 149.730469 L 15.265625 156.199219 L 19.308594 161.457031 L 20.925781 163.476562 L 24.160156 166.308594 L 28.199219 169.136719 L 34.667969 172.371094 L 41.136719 173.988281 L 44.371094 174.390625 L 77.117188 174.390625 L 84.394531 173.179688 L 89.242188 171.15625 L 94.902344 167.925781 L 98.945312 164.285156 L 102.179688 161.050781 L 105.820312 155.796875 L 108.648438 149.328125 L 110.265625 142.050781 L 110.667969 92.328125 L 111.476562 90.304688 L 113.5 89.09375 L 115.117188 88.6875 L 115.117188 135.988281 L 119.5625 135.582031 L 124.414062 133.964844 L 130.074219 130.328125 L 134.519531 125.476562 L 136.945312 121.433594 L 138.96875 115.371094 L 139.371094 112.945312 L 139.371094 104.859375 L 137.753906 98.390625 L 134.925781 92.730469 L 131.285156 88.6875 L 128.457031 86.265625 L 122.796875 83.839844 L 119.160156 83.03125 L 111.476562 83.03125 L 108.648438 83.839844 L 105.820312 86.667969 L 104.605469 89.09375 L 104.203125 91.113281 L 103.796875 142.457031 L 102.179688 148.113281 L 100.5625 151.753906 L 97.734375 156.605469 L 93.285156 161.050781 L 89.242188 163.882812 L 82.777344 166.710938 L 77.519531 167.925781 L 43.5625 167.925781 L 37.902344 166.710938 L 31.433594 163.882812 L 25.777344 159.433594 L 22.945312 156.199219 L 20.519531 152.15625 L 18.5 148.113281 L 17.285156 143.265625 L 16.882812 140.03125 L 16.882812 82.222656 L 18.09375 79.796875 L 19.710938 78.582031 L 109.859375 78.582031 L 110.265625 78.179688 L 110.265625 74.136719 L 107.839844 72.113281 Z M 13.648438 72.113281 " fill-opacity="1" fill-rule="nonzero"/><path fill="#292722" d="M 11.625 67.667969 L 109.457031 67.667969 L 112.691406 69.6875 L 114.308594 71.710938 L 115.117188 74.136719 L 115.117188 78.179688 L 121.585938 78.582031 L 127.246094 80.199219 L 132.09375 83.03125 L 136.136719 86.265625 L 139.371094 90.710938 L 142.605469 97.179688 L 143.820312 102.433594 L 144.222656 106.074219 L 144.222656 111.328125 L 143.414062 117.390625 L 140.988281 123.859375 L 138.5625 127.902344 L 135.734375 131.539062 L 132.902344 134.371094 L 127.648438 137.605469 L 121.585938 140.03125 L 117.136719 140.839844 L 114.710938 140.839844 L 114.308594 145.691406 L 112.691406 152.15625 L 109.457031 159.03125 L 106.628906 163.074219 L 106.222656 163.882812 L 105.414062 163.882812 L 104.605469 165.5 L 100.5625 169.539062 L 94.902344 173.582031 L 88.03125 176.816406 L 82.777344 178.433594 L 77.519531 179.242188 L 43.96875 179.242188 L 36.691406 178.03125 L 30.222656 175.605469 L 24.160156 172.371094 L 18.902344 167.925781 L 15.265625 164.285156 L 12.433594 160.242188 L 9.199219 154.582031 L 7.179688 148.113281 L 5.96875 141.242188 L 5.96875 74.136719 L 7.179688 70.902344 L 10.007812 68.476562 Z M 13.648438 72.113281 L 11.625 72.921875 L 10.816406 74.136719 L 10.816406 143.265625 L 12.433594 149.730469 L 15.265625 156.199219 L 19.308594 161.457031 L 20.925781 163.476562 L 24.160156 166.308594 L 28.199219 169.136719 L 34.667969 172.371094 L 41.136719 173.988281 L 44.371094 174.390625 L 77.117188 174.390625 L 84.394531 173.179688 L 89.242188 171.15625 L 94.902344 167.925781 L 98.945312 164.285156 L 102.179688 161.050781 L 105.820312 155.796875 L 108.648438 149.328125 L 110.265625 142.050781 L 110.667969 92.328125 L 111.476562 90.304688 L 113.5 89.09375 L 115.117188 88.6875 L 115.117188 135.988281 L 119.5625 135.582031 L 124.414062 133.964844 L 130.074219 130.328125 L 134.519531 125.476562 L 136.945312 121.433594 L 138.96875 115.371094 L 139.371094 112.945312 L 139.371094 104.859375 L 137.753906 98.390625 L 134.925781 92.730469 L 131.285156 88.6875 L 128.457031 86.265625 L 122.796875 83.839844 L 119.160156 83.03125 L 111.476562 83.03125 L 109.859375 83.433594 L 110.265625 78.179688 L 110.265625 74.136719 L 107.839844 72.113281 Z M 13.648438 72.113281 " fill-opacity="1" fill-rule="nonzero"/><path fill="#292722" d="M 60.945312 7.03125 L 63.371094 7.839844 L 66.203125 10.261719 L 68.222656 13.902344 L 69.433594 17.945312 L 69.433594 21.179688 L 68.222656 26.03125 L 65.796875 30.476562 L 60.945312 36.136719 L 58.519531 39.773438 L 57.308594 43.007812 L 57.308594 49.476562 L 59.328125 54.730469 L 60.945312 57.964844 L 59.734375 58.371094 L 56.5 55.945312 L 54.074219 52.710938 L 52.457031 49.070312 L 52.050781 47.050781 L 52.050781 43.414062 L 53.265625 38.964844 L 55.691406 34.519531 L 59.328125 30.476562 L 63.371094 24.816406 L 64.179688 21.988281 L 64.179688 15.519531 L 62.5625 11.070312 L 60.945312 8.242188 Z M 60.945312 7.03125 " fill-opacity="1" fill-rule="nonzero"/></svg>